Coordinates
nRows=9
nColumns=34

# SIMM Motion File Header:
name Coordinates
datacolumns 34
datarows 9
otherdata 1
range 0.16000000000000000000 0.16800000000000001000

Units are S.I. units (second, meters, Newtons, ...)
Angles are in degrees.

endheader
time	pelvis_tz	pelvis_tx	pelvis_ty	pelvis_tilt	pelvis_list	pelvis_rotation	hip_flexion_r	hip_adduction_r	hip_rotation_r	knee_r_tx	knee_r_ty	knee_angle_r	tib_pat_r_tx	tib_pat_r_ty	tib_pat_r_r1	ankle_angle_r	subtalar_angle_r	mtp_angle_r	hip_flexion_l	hip_adduction_l	hip_rotation_l	knee_l_tx	knee_l_ty	knee_angle_l	tib_pat_l_tx	tib_pat_l_ty	tib_pat_l_r1	ankle_angle_l	subtalar_angle_l	mtp_angle_l	lumbar_extension	lumbar_bending	lumbar_rotation
      0.16000000000000000000	     -0.25870217999999995000	      0.00932520999999999700	      0.91621016999999993000	     -2.40250919999999950000	     -2.25900063000000010000	      0.09532623999999997900	     14.13947298999999600000	      4.45645389000000060000	     12.41232117000000000000	     -0.00335481803802585580	     -0.41388398201534160000	     -9.37697750999999790000	      0.04537676913692113800	     -0.02089289633731577700	      8.72645608107052160000	      0.60970329999999984000	      0.00000000000000000000	      0.00000000000000000000	     -1.99888692999999960000	     -2.10592905999999940000	     -1.92710036999999960000	      0.00308190180997405890	     -0.41990138095705087000	    -46.94772623999999400000	      0.03871837100413850300	     -0.01949810092825977200	     16.92677361682302000000	    -19.98659760999999700000	      0.00000000000000000000	      0.00000000000000000000	     -0.42315037999999988000	      7.08035847000000020000	     -3.33772402999999950000
      0.16100000000000000000	     -0.25863497999646035000	      0.01037143529400579500	      0.91633245830578425000	     -2.40193199332045730000	     -2.25863599448623150000	      0.09101686425907581900	     14.04929134641104400000	      4.46136027190083250000	     12.42300272289369400000	     -0.00335991432281474180	     -0.41388155997267917000	     -9.34986551427843260000	      0.04538100112205040900	     -0.02089423614597267200	      8.70803247444412780000	      0.66842757805957109000	      0.00000000000000000000	      0.00000000000000000000	     -1.83127600889140110000	     -2.13041786207525960000	     -1.94499704280410410000	      0.00311325637080247600	     -0.41996473561227810000	    -47.21644480617600700000	      0.03865814065587816500	     -0.01948914524714956100	     16.94126587492931800000	    -19.88690868681453600000	      0.00000000000000000000	      0.00000000000000000000	     -0.43034813549575957000	      7.07522276229062010000	     -3.29872784237885510000
      0.16200000000000001000	     -0.25856730890838947000	      0.01141079761600510700	      0.91644961500413435000	     -2.40131601842016580000	     -2.25691372398514510000	      0.08589548939676566700	     13.95949012880354600000	      4.46498989567568310000	     12.43495331451181900000	     -0.00336497052029970190	     -0.41387914428367939000	     -9.32274360065440890000	      0.04538524644614785200	     -0.02089558523983150700	      8.68940855374201600000	      0.72708475539620943000	      0.00000000000000000000	      0.00000000000000000000	     -1.66416647550480670000	     -2.15364146534570140000	     -1.96370015753079060000	      0.00314283122370847930	     -0.42002804150315709000	    -47.47987217908376300000	      0.03859841114230305000	     -0.01948049290414342500	     16.95430015595078300000	    -19.78327531960667700000	      0.00000000000000000000	      0.00000000000000000000	     -0.43757312001968374000	      7.06809982305529160000	     -3.25879329695911530000
      0.16300000000000001000	     -0.25849962673030408000	      0.01244999837366854400	      0.91656665089698708000	     -2.40069913085961150000	     -2.25515949278323100000	      0.08075499889495509100	     13.86969786697657300000	      4.46858946270856980000	     12.44693378114597600000	     -0.00337002577407126330	     -0.41387672874425413000	     -9.29562145354854690000	      0.04538949208426400200	     -0.02089693455227749400	      8.67077991735541960000	      0.78574035308430390000	      0.00000000000000000000	      0.00000000000000000000	     -1.49706874551391960000	     -2.17683528399740170000	     -1.98242225707244080000	      0.00317236417970331040	     -0.42009134624605243000	    -47.74317498961161700000	      0.03853869341910436100	     -0.01947184770215713500	     16.96730011407260700000	    -19.67954909445355900000	      0.00000000000000000000	      0.00000000000000000000	     -0.44479874555450638000	      7.06093010150154220000	     -3.21883666123296040000
      0.16400000000000001000	     -0.25843194455221863000	      0.01348919913133198200	      0.91668368678983969000	     -2.40008224329905670000	     -2.25340526158131690000	      0.07561450839314452800	     13.77990560514959900000	      4.47218902974145750000	     12.45891424778013200000	     -0.00337508102784282470	     -0.41387431320482881000	     -9.26849930644268310000	      0.04539373772238014500	     -0.02089828386472348000	      8.65215128096882320000	      0.84439595077239815000	      0.00000000000000000000	      0.00000000000000000000	     -1.32997101552303270000	     -2.20002910264910150000	     -2.00114435661409070000	      0.00320189713569814110	     -0.42015465098894783000	    -48.00647780013946400000	      0.03847897569590566500	     -0.01946320250017084800	     16.98030007219442800000	    -19.57582286930044200000	      0.00000000000000000000	      0.00000000000000000000	     -0.45202437108932897000	      7.05376037994779370000	     -3.17888002550680590000
      0.16500000000000001000	     -0.25836426237413324000	      0.01452839988899542000	      0.91680072268269241000	     -2.39946535573850190000	     -2.25165103037940280000	      0.07047401789133395100	     13.69011334332262700000	      4.47578859677434520000	     12.47089471441428900000	     -0.00338013628161438610	     -0.41387189766540355000	     -9.24137715933682100000	      0.04539798336049629500	     -0.02089963317716946700	      8.63352264458222680000	      0.90305154846049263000	      0.00000000000000000000	      0.00000000000000000000	     -1.16287328553214530000	     -2.22322292130080120000	     -2.01986645615574110000	      0.00323143009169297180	     -0.42021795573184317000	    -48.26978061066731800000	      0.03841925797270696900	     -0.01945455729818456100	     16.99330003031625200000	    -19.47209664414732400000	      0.00000000000000000000	      0.00000000000000000000	     -0.45924999662415161000	      7.04659065839404430000	     -3.13892338978065100000
      0.16600000000000001000	     -0.25829658019604779000	      0.01556760064665885900	      0.91691775857554503000	     -2.39884846817794720000	     -2.24989679917748870000	      0.06533352738952338800	     13.60032108149565400000	      4.47938816380723280000	     12.48287518104844600000	     -0.00338519153538594740	     -0.41386948212597824000	     -9.21425501223095720000	      0.04540222899861243900	     -0.02090098248961545400	      8.61489400819563040000	      0.96170714614858699000	      0.00000000000000000000	      0.00000000000000000000	     -0.99577555554125841000	     -2.24641673995250100000	     -2.03858855569739110000	      0.00326096304768780250	     -0.42028126047473852000	    -48.53308342119517200000	      0.03835954024950828000	     -0.01944591209619827400	     17.00629998843807300000	    -19.36837041899420700000	      0.00000000000000000000	      0.00000000000000000000	     -0.46647562215897420000	      7.03942093684029490000	     -3.09896675405449610000
      0.16700000000000001000	     -0.25822889801796239000	      0.01660680140432229500	      0.91703479446839775000	     -2.39823158061739240000	     -2.24814256797557470000	      0.06019303688771281100	     13.51052881966868200000	      4.48298773084012050000	     12.49485564768260200000	     -0.00339024678915750880	     -0.41386706658655292000	     -9.18713286512509520000	      0.04540647463672858900	     -0.02090233180206144100	      8.59626537180903410000	      1.02036274383668140000	      0.00000000000000000000	      0.00000000000000000000	     -0.82867782555037128000	     -2.26961055860420080000	     -2.05731065523904100000	      0.00329049600368263320	     -0.42034456521763386000	    -48.79638623172301900000	      0.03829982252630958300	     -0.01943726689421198700	     17.01929994655989700000	    -19.26464419384109000000	      0.00000000000000000000	      0.00000000000000000000	     -0.47370124769379685000	      7.03225121528654550000	     -3.05901011832834110000
      0.16800000000000001000	     -0.25816121583987700000	      0.01764600216198573100	      0.91715183036125036000	     -2.39761469305683810000	     -2.24638833677366060000	      0.05505254638590224200	     13.42073655784170900000	      4.48658729787300730000	     12.50683611431675900000	     -0.00339530204292907020	     -0.41386465104712766000	     -9.16001071801923140000	      0.04541072027484473200	     -0.02090368111450742800	      8.57763673542243770000	      1.07901834152477560000	      0.00000000000000000000	      0.00000000000000000000	     -0.66158009555948438000	     -2.29280437725590100000	     -2.07603275478069090000	      0.00332002895967746430	     -0.42040786996052926000	    -49.05968904225087400000	      0.03824010480311089400	     -0.01942862169222570000	     17.03229990468171800000	    -19.16091796868797200000	      0.00000000000000000000	      0.00000000000000000000	     -0.48092687322861943000	      7.02508149373279700000	     -3.01905348260218620000
